# xmcd
# 
# Track frame offsets:
#     150
#     18670
#     42868
#     62967
#     81670
#     122524
#     130024
# 
# Disc length: 2611
# 
# Revision: 0
# Processed by: cddbd v1.5.2PL0 Copyright (c) Steve Scherf et al.
# Submitted via: BonkEnc v1.0.8
# 
DISCID=5d0a3107
DTITLE=Vibra - ornschbudspencer
DYEAR=2004
DGENRE=
TTITLE0=ornschbudspencer (radio edit)
TTITLE1=ornschbudspencer (butterzipfl rmx)
TTITLE2=ornschbudspencer (stepmode rmx)
TTITLE3=ornschbudspencer (vibra cover-version)
TTITLE4=Captain Future
TTITLE5=Data track
TTITLE6=Data track
EXTD=
EXTT0=
EXTT1=
EXTT2=
EXTT3=
EXTT4=
EXTT5=
EXTT6=
PLAYORDER=
